<?xml version="1.0" encoding="UTF-8"?>
<svg width="50px" height="50px" viewBox="0 0 50 50" version="1.1" xmlns="http://www.w3.org/2000/svg" xmlns:xlink="http://www.w3.org/1999/xlink">
    <!-- Generator: Sketch 47 (45396) - http://www.bohemiancoding.com/sketch -->
    <title>Group 5</title>
    <desc>Created with Sketch.</desc>
    <defs></defs>
    <g id="TRENDS-PAGE" stroke="none" stroke-width="1" fill="none" fill-rule="evenodd">
        <g id="Trend-Challenge---Desktop" transform="translate(-88.000000, -2756.000000)" fill="#D92E27">
            <g id="Group-4" transform="translate(0.000000, 1583.000000)">
                <g id="Group-5" transform="translate(88.000000, 1173.000000)">
                    <path d="M22.5166,31.9479412 L16.8676,25.3008824 C16.5136,24.8851961 16.5706,24.267549 16.9956,23.9204902 C17.4196,23.5734314 18.0486,23.6302941 18.4036,24.0459804 L22.7536,29.1636275 L38.4836,15.922451 C38.9016,15.5685294 39.5336,15.617549 39.8936,16.0283333 C40.2536,16.4391176 40.2056,17.0577451 39.7866,17.4106863 L22.5166,31.9479412 Z" id="Fill-1"></path>
                    <path d="M24.7388,2.47254902 C12.2008,2.47254902 1.9998,12.4735294 1.9998,24.7656863 C1.9998,37.0578431 12.2008,47.0588235 24.7388,47.0588235 C37.2778,47.0588235 47.4778,37.0578431 47.4778,24.7656863 C47.4778,12.4735294 37.2778,2.47254902 24.7388,2.47254902 M24.7388,49.0196078 C11.0978,49.0196078 -0.0002,38.1392157 -0.0002,24.7656863 C-0.0002,11.3921569 11.0978,0.511764706 24.7388,0.511764706 C38.3798,0.511764706 49.4778,11.3921569 49.4778,24.7656863 C49.4778,38.1392157 38.3798,49.0196078 24.7388,49.0196078" id="Fill-3"></path>
                </g>
            </g>
        </g>
    </g>
</svg>