<svg xmlns="http://www.w3.org/2000/svg" xmlns:xlink="http://www.w3.org/1999/xlink" width="58" height="53" viewBox="0 0 58 53">
    <defs>
        <path id="a" d="M0 60h60V0H0z"/>
    </defs>
    <g fill="none" fill-rule="evenodd" transform="translate(-1 -7)">
        <path fill="#F28C13" d="M38 37c7 4 14 3 14 13v2H8v-2c0-10 7-9 14-13h16z"/>
        <path fill="#FFF" d="M34 41l-4-2-4 2-4-4 2-3h1v-4l5 1 5-1v4h1l2 3z"/>
        <path fill="#4D5152" d="M53 53H7v-3c0-8.01 4.446-9.7 9.152-11.489 1.743-.661 3.544-1.346 5.352-2.379l.992 1.736c-1.943 1.111-3.904 1.856-5.633 2.513C12.128 42.181 9 43.369 9 50v1h42v-1c0-6.631-3.128-7.819-7.863-9.619-1.729-.657-3.69-1.402-5.633-2.513l.992-1.736c1.808 1.033 3.609 1.718 5.352 2.379C48.554 40.3 53 41.99 53 50v3z"/>
        <path fill="#4D5152" d="M30 37.882l3.803 1.9 2.91-2.91-1.187-1.78-5.526.922-5.526-.921-1.187 1.78 2.91 2.91L30 37.882zm4.197 4.335L30 40.117l-4.197 2.1-5.09-5.09 2.813-4.22L30 33.986l6.474-1.08 2.813 4.222-5.09 5.089z"/>
        <mask id="b" fill="#fff">
            <use xlink:href="#a"/>
        </mask>
        <path fill="#4D5152" d="M34 34h2v-4h-2zM24 34h2v-4h-2zM29 45h2v-2h-2zM29 49h2v-2h-2z" mask="url(#b)"/>
        <path fill="#FFF" d="M39 17v4c-1 7-4 9-4 9-2 1-5 1-5 1s-3 0-5-1c0 0-3-2-4-9v-4l4-2 10 4 4-2z" mask="url(#b)"/>
        <path fill="#FFB957" d="M21 17c0-6.075 2.925-9 9-9s9 2.925 9 9l-4 2-5-2-5-2-4 2z" mask="url(#b)"/>
        <path fill="#4D5152" d="M30 32c-.132 0-3.261-.013-5.447-1.105l-.108-.063c-.137-.092-3.384-2.333-4.435-9.69L20 21v-4h2v3.928c.861 5.917 3.201 7.961 3.519 8.213 1.762.845 4.455.859 4.482.859.025 0 2.717-.014 4.478-.859.313-.249 2.661-2.304 3.521-8.213V17h2l-.01 4.142c-1.051 7.357-4.298 9.598-4.435 9.69l-.108.063C33.261 31.987 30.132 32 30 32M40 17h-2c0-5.533-2.467-8-8-8-5.533 0-8 2.467-8 8h-2c0-6.636 3.364-10 10-10s10 3.364 10 10" mask="url(#b)"/>
        <path fill="#4D5152" d="M35.045 20.095l-10-4-3.598 1.8-.895-1.79 4.402-2.2 10 4 3.598-1.8.895 1.79z" mask="url(#b)"/>
        <path fill="#FFF" d="M2 59h56v-7H2z" mask="url(#b)"/>
        <path fill="#4D5152" d="M3 58h54v-5H3v5zm-2 2h58v-9H1v9zM57 51h-2v-8.586l-8.707-8.707 1.414-1.414L57 41.586z" mask="url(#b)"/>
        <path fill="#FFF" d="M50 33a3 3 0 1 1-6 0 3 3 0 0 1 6 0" mask="url(#b)"/>
        <path fill="#4D5152" d="M47 31c-1.103 0-2 .897-2 2s.897 2 2 2 2-.897 2-2-.897-2-2-2m0 6c-2.206 0-4-1.794-4-4s1.794-4 4-4 4 1.794 4 4-1.794 4-4 4" mask="url(#b)"/>
    </g>
</svg>
