<svg xmlns="http://www.w3.org/2000/svg" width="49" height="49" viewBox="0 0 49 49">
    <g fill="none" fill-rule="evenodd">
        <path fill="#010202" d="M1.316 47.29h46.272v-4.7H1.316v4.7zm8.07-13.611h29.559l2.283 7.628H7.224l2.162-7.628zm9.097-32.116h10.849l2.511 8.395H16.105l2.378-8.395zm15.24 14.677H14.327l1.416-5h16.486l1.496 5zm-19.761 1.282h20.146l2.55 8.518h-25.11l2.414-8.518zm-3.833 13.532l1.057-3.732h25.856l1.519 5.075H9.749l.38-1.343zm38.117 10.253H42.6l-2.821-9.423-1.61-5.382L30.454.742a.655.655 0 0 0-.63-.46H17.983a.654.654 0 0 0-.634.471L9.478 28.534 8.25 32.867v.002l-2.39 8.438H.657a.65.65 0 0 0-.658.641v5.983a.65.65 0 0 0 .658.641h47.588a.65.65 0 0 0 .658-.64v-5.984a.65.65 0 0 0-.658-.64z"/>
        <path fill="#FEFEFE" d="M10.128 31.055l1.058-3.732h25.856l1.518 5.073H9.748zM33.724 16.24H14.326l1.417-5h16.484zM1.316 47.29h46.272v-4.7H1.316z"/>
    </g>
</svg>
