<svg xmlns="http://www.w3.org/2000/svg" xmlns:xlink="http://www.w3.org/1999/xlink" width="64" height="60" viewBox="0 0 64 60">
    <defs>
        <path id="a" d="M0 60h64V0H0z"/>
    </defs>
    <g fill="none" fill-rule="evenodd">
        <path fill="#FFF" d="M5 60V36H1V22a7 7 0 0 1 7-7h27v6H19v39H5z"/>
        <mask id="b" fill="#fff">
            <use xlink:href="#a"/>
        </mask>
        <path fill="#FFF" d="M12 40h51V6H12z" mask="url(#b)"/>
        <path fill="#4D5152" d="M63 41H22v-2h40V7H20V5h43a1 1 0 0 1 1 1v34a1 1 0 0 1-1 1" mask="url(#b)"/>
        <path fill="#4D5152" d="M22 37h38v-2H22z" mask="url(#b)"/>
        <path fill="#F28C13" d="M22 33h6v-5h-6zM30 33h6v-9h-6zM38 33h6V20h-6zM46 33h6V14h-6zM54 33h6V9h-6z" mask="url(#b)"/>
        <path fill="#67DDE0" d="M35 21v-6H8a7 7 0 0 0-7 7v14h18V21h16z" mask="url(#b)"/>
        <path fill="#FFF" d="M17 6a5 5 0 0 1-5 5 5 5 0 0 1-5-5 5 5 0 0 1 5-5 5 5 0 0 1 5 5" mask="url(#b)"/>
        <path fill="#4D5152" d="M11 60h2V39h-2zM12 2C9.794 2 8 3.794 8 6s1.794 4 4 4 4-1.794 4-4-1.794-4-4-4m0 10c-3.309 0-6-2.691-6-6s2.691-6 6-6 6 2.691 6 6-2.691 6-6 6" mask="url(#b)"/>
        <path fill="#FFF" d="M17 16l-5 5-5-5z" mask="url(#b)"/>
        <path fill="#4D5152" d="M12 22a.997.997 0 0 1-.707-.293l-5-5 1.414-1.414L12 19.586l4.293-4.293 1.414 1.414-5 5A.997.997 0 0 1 12 22" mask="url(#b)"/>
        <path fill="#4D5152" d="M20 60h-2V21a1 1 0 0 1 1-1h15v-4H8c-3.309 0-6 2.691-6 6v13h3a1 1 0 0 1 1 1v24H4V37H1a1 1 0 0 1-1-1V22c0-4.411 3.589-8 8-8h27a1 1 0 0 1 1 1v6a1 1 0 0 1-1 1H20v38z" mask="url(#b)"/>
    </g>
</svg>
