<svg xmlns="http://www.w3.org/2000/svg" xmlns:xlink="http://www.w3.org/1999/xlink" width="64" height="53" viewBox="0 0 64 53">
    <defs>
        <path id="a" d="M0 53h64V0H0z"/>
    </defs>
    <g fill="none" fill-rule="evenodd">
        <path fill="#FFB957" d="M59 24c0 13.255-10.745 24-24 24S11 37.255 11 24 21.745 0 35 0s24 10.745 24 24z"/>
        <mask id="b" fill="#fff">
            <use xlink:href="#a"/>
        </mask>
        <path fill="#ACF0F2" d="M0 48h12V28H0z" mask="url(#b)"/>
        <path fill="#FFF" d="M60 33c-1 0-17.535 6.614-17.535 6.614l-.035.008A2.988 2.988 0 0 0 44 37a3 3 0 0 0-3-3h-9l-11-4h-8v16h4s16 6 19 6 26-14 26-14c.748-.545 1-1.003 1-2a3 3 0 0 0-3-3" mask="url(#b)"/>
        <path fill="#4D5152" d="M13 49H0v-2h11V29H0v-2h13zM28 43h-2c0-2.206 1.794-4 4-4h11c1.103 0 2-.898 2-2 0-1.103-.897-2-2-2h-9.176l-11-4H13v-2h8.176l11 4H41c2.206 0 4 1.794 4 4s-1.794 4-4 4H30c-1.103 0-2 .898-2 2" mask="url(#b)"/>
        <path fill="#4D5152" d="M7 45h2v-2H7zM7 41h2v-2H7zM36 53c-3.005 0-16.883-5.141-19.181-6H13v-2h4.181l.17.064C23.714 47.45 33.932 51 36 51c1.725-.014 14.31-7.055 25.48-13.855.409-.301.52-.453.52-1.145 0-1.103-.897-2-2-2-.98.164-11.06 4.101-17.164 6.543l-.743-1.857C49.718 35.636 59.014 32 60 32c2.206 0 4 1.794 4 4 0 1.298-.382 2.059-1.411 2.809C58.639 41.217 39.122 53 36 53" mask="url(#b)"/>
        <path fill="#FFF" d="M49 15c0 4-2.687 8-6 8a6 6 0 0 1-6-6c0-3.314 4-6 8-6h4v4z" mask="url(#b)"/>
        <path fill="#ACF0F2" d="M21 15c0 4 2.687 8 6 8a6 6 0 0 0 6-6c0-3.314-4-6-8-6h-4v4z" mask="url(#b)"/>
        <path fill="#4D5152" d="M45 12c-3.598 0-7 2.43-7 5 0 2.757 2.243 5 5 5 2.57 0 5-3.402 5-7v-3h-3zm-2 12c-3.86 0-7-3.141-7-7 0-4.125 4.743-7 9-7h5v5c0 4.257-2.875 9-7 9zM22 12v3c0 3.598 2.43 7 5 7 2.757 0 5-2.243 5-5 0-2.57-3.402-5-7-5h-3zm5 12c-4.125 0-7-4.743-7-9v-5h5c4.257 0 9 2.875 9 7 0 3.859-3.14 7-7 7zM34 34h2v-9h-2z" mask="url(#b)"/>
        <path fill="#4D5152" d="M34.293 25.707l-7-7 1.414-1.414 7 7z" mask="url(#b)"/>
        <path fill="#4D5152" d="M35.707 25.707l-1.414-1.414 7-7 1.414 1.414z" mask="url(#b)"/>
    </g>
</svg>
