<svg xmlns="http://www.w3.org/2000/svg" width="50" height="50" viewBox="0 0 50 50">
    <g fill="#D92E27" fill-rule="evenodd">
        <path d="M24.739 2C12.2 2 1.999 12.201 1.999 24.739s10.202 22.739 22.74 22.739c12.539 0 22.739-10.201 22.739-22.739S37.278 2 24.738 2m0 47.478C11.099 49.478 0 38.38 0 24.739S11.098 0 24.739 0c13.64 0 24.739 11.098 24.739 24.739S38.38 49.478 24.738 49.478"/>
        <path d="M13.364 28.329h22.75V15.996h-22.75v12.333zm23.75 2h-24.75a1 1 0 0 1-1-1V14.995a1 1 0 0 1 1-1h24.75a1 1 0 0 1 1 1v14.334a1 1 0 0 1-1 1zM39.155 34.079H10.322a1 1 0 0 1 0-2h28.833a1 1 0 0 1 0 2"/>
    </g>
</svg>
