<svg xmlns="http://www.w3.org/2000/svg" width="50" height="50" viewBox="0 0 50 50">
    <g fill="#D92E27" fill-rule="evenodd">
        <path d="M24.74 2C12.2 2 2 12.201 2 24.739s10.2 22.739 22.74 22.739c12.537 0 22.738-10.201 22.738-22.739S37.278 2 24.74 2m0 47.478C11.1 49.478 0 38.38 0 24.739S11.098 0 24.74 0c13.64 0 24.738 11.098 24.738 24.739S38.38 49.478 24.74 49.478"/>
        <path d="M22.318 38.01H26.5l1.18-5.42v-3.702l4.302-8.218c1.15-2.197-.082-6.269-3.34-8.032-3.439-1.859-6.38-2.153-10.423 2.121-3.119 3.297 1.036 10.805 2.9 13.42l.186.26v4.287l1.014 5.283zm5.792 2h-7.444l-1.362-7.188v-3.75c-1.173-1.726-7.049-10.919-2.539-15.688 5.208-5.506 9.407-4.356 12.827-2.504 4.36 2.358 5.792 7.603 4.161 10.718L29.68 29.38l-.023 3.53-1.546 7.1z"/>
        <path d="M24.553 25.172l-2.58-2.581a1 1 0 0 1 1.413-1.414l1.167 1.167 1.262-1.262a1 1 0 0 1 1.414 1.414l-2.676 2.676zM28.68 33.822h-8.375a1 1 0 0 1 0-2h8.375a1 1 0 0 1 0 2"/>
        <path d="M24.553 33.822a1 1 0 0 1-1-1v-9.064a1 1 0 0 1 2 0v9.064a1 1 0 0 1-1 1"/>
    </g>
</svg>
