<svg xmlns="http://www.w3.org/2000/svg" width="50" height="50" viewBox="0 0 50 50">
    <g fill="#D92E27" fill-rule="evenodd">
        <path d="M24.74 2C12.2 2 2 12.201 2 24.739s10.2 22.739 22.74 22.739c12.537 0 22.738-10.201 22.738-22.739S37.278 2 24.74 2m0 47.478C11.1 49.478 0 38.38 0 24.739S11.098 0 24.74 0c13.64 0 24.738 11.098 24.738 24.739S38.38 49.478 24.74 49.478"/>
        <path d="M13.235 20.46l11.644 5.21 11.41-5.527-11.385-4.238-11.67 4.555zm11.66 7.312c-.14 0-.278-.029-.408-.087l-14.25-6.375a1 1 0 0 1 .045-1.845l14.25-5.562a.993.993 0 0 1 .712-.005l13.938 5.187a1.001 1.001 0 0 1 .087 1.837l-13.937 6.75a.997.997 0 0 1-.436.1z"/>
        <path d="M24.74 36.022c-6.868 0-9.988-4.629-10.118-4.826a.996.996 0 0 1-.158-.659l.852-7.715c.061-.55.558-.936 1.104-.884a1 1 0 0 1 .884 1.104l-.809 7.325c.713.893 3.32 3.655 8.244 3.655 4.878 0 7.81-2.66 8.666-3.567l-1.045-7.643a1 1 0 1 1 1.982-.27l1.106 8.095a.997.997 0 0 1-.202.75c-.147.19-3.69 4.635-10.507 4.635M38.833 36.022a1 1 0 0 1-1-1v-15a1 1 0 0 1 2 0v15a1 1 0 0 1-1 1"/>
    </g>
</svg>
