<svg xmlns="http://www.w3.org/2000/svg" xmlns:xlink="http://www.w3.org/1999/xlink" width="40" height="60" viewBox="0 0 40 60">
    <defs>
        <path id="a" d="M0 60h40V0H0z"/>
    </defs>
    <g fill="none" fill-rule="evenodd">
        <path fill="#ACF0F2" d="M20 1c8.284 0 15 6.716 15 15v11h-6V16a9 9 0 0 0-9-9 9 9 0 0 0-9 9v11H5V16C5 7.716 11.716 1 20 1z"/>
        <path fill="#FFF" d="M39 56a3 3 0 0 1-3 3H4a3 3 0 0 1-3-3V30a3 3 0 0 1 3-3h32a3 3 0 0 1 3 3v26z"/>
        <path fill="#4D5152" d="M4 28c-1.103 0-2 .897-2 2v26c0 1.102.897 2 2 2h32c1.103 0 2-.898 2-2V30c0-1.103-.897-2-2-2H4zm32 32H4c-2.206 0-4-1.794-4-4V30c0-2.206 1.794-4 4-4h32c2.206 0 4 1.794 4 4v26c0 2.206-1.794 4-4 4zM36 16h-2c0-7.72-6.28-14-14-14S6 8.28 6 16H4C4 7.178 11.178 0 20 0s16 7.178 16 16"/>
        <mask id="b" fill="#fff">
            <use xlink:href="#a"/>
        </mask>
        <path fill="#4D5152" d="M4 26h2V16H4zM34 26h2V16h-2zM30 16h-2c0-4.411-3.589-8-8-8s-8 3.589-8 8h-2c0-5.514 4.486-10 10-10s10 4.486 10 10M10 26h2V16h-2zM28 26h2V16h-2z" mask="url(#b)"/>
        <path fill="#F28C13" d="M38 50H28l8-8h2zM2 42h31.5l-4 4-4 4H2z" mask="url(#b)"/>
        <path fill="#4D5152" d="M19 38h2v-2h-2zM23 38h2v-2h-2zM15 38h2v-2h-2zM2 56h36v-2H2z" mask="url(#b)"/>
    </g>
</svg>
