<svg xmlns="http://www.w3.org/2000/svg" xmlns:xlink="http://www.w3.org/1999/xlink" width="44" height="64" viewBox="0 0 44 64">
    <defs>
        <path id="a" d="M0 64h44V0H0z"/>
    </defs>
    <g fill="none" fill-rule="evenodd">
        <path fill="#4D5152" d="M10 54a.999.999 0 0 1-.707-1.707l17-17a.999.999 0 1 1 1.414 1.414l-17 17A.997.997 0 0 1 10 54z"/>
        <path fill="#4D5152" d="M34 54a.997.997 0 0 1-.707-.293l-17-17a.999.999 0 1 1 1.414-1.414l17 17A.999.999 0 0 1 34 54"/>
        <path fill="#FFB957" d="M38 63h5L22 9 1 63h5l16-41z"/>
        <path fill="#4D5152" d="M38.684 62h2.855l-19.54-50.241L2.463 62h2.854L21.07 21.637a.999.999 0 0 1 1.863 0L38.684 62zM43 64h-5a.999.999 0 0 1-.931-.637l-15.07-38.612L6.933 63.363a.999.999 0 0 1-.933.637H1a1 1 0 0 1-.93-1.362l21-54a.998.998 0 0 1 1.863 0l21 54A.998.998 0 0 1 42.998 64z"/>
        <path fill="#67DDE0" d="M29 16a7 7 0 1 1-14 0 7 7 0 0 1 14 0"/>
        <path fill="#4D5152" d="M22 10c-3.309 0-6 2.691-6 6s2.691 6 6 6 6-2.691 6-6-2.691-6-6-6m0 14c-4.411 0-8-3.589-8-8s3.589-8 8-8 8 3.589 8 8-3.589 8-8 8"/>
        <path fill="#4D5152" d="M34 16h-2c0-5.514-4.486-10-10-10s-10 4.486-10 10h-2c0-6.617 5.383-12 12-12s12 5.383 12 12"/>
        <path fill="#4D5152" d="M38 16h-2c0-7.72-6.28-14-14-14S8 8.28 8 16H6C6 7.178 13.178 0 22 0s16 7.178 16 16"/>
        <mask id="b" fill="#fff">
            <use xlink:href="#a"/>
        </mask>
        <path fill="#4D5152" d="M21 17h2v-2h-2zM10 54h24v-2H10z" mask="url(#b)"/>
    </g>
</svg>
