<svg xmlns="http://www.w3.org/2000/svg" xmlns:xlink="http://www.w3.org/1999/xlink" width="60" height="64" viewBox="0 0 60 64">
    <defs>
        <path id="a" d="M0 64h60V0H0z"/>
    </defs>
    <g fill="none" fill-rule="evenodd">
        <path fill="#67DDE0" d="M60 34c0 16.568-13.432 30-30 30C13.432 64 0 50.568 0 34 0 17.432 13.432 4 30 4c16.568 0 30 13.432 30 30z"/>
        <path fill="#FFF" d="M33 12l7 4v2c0 1.657-1 3-2 3H22c-1 0-2-1.343-2-3v-2l7-4h6z"/>
        <path fill="#FFB957" d="M35 6.5c0 3.5-1.963 6.5-5 6.5s-5-3-5-6.5S26 1 30 1s5 2 5 5.5"/>
        <path fill="#4D5152" d="M30 2c-3.028 0-4 1.094-4 4.5 0 2.666 1.402 5.5 4 5.5s4-2.834 4-5.5c0-3.406-.972-4.5-4-4.5m0 12c-3.421 0-6-3.225-6-7.5 0-3.026.682-6.5 6-6.5s6 3.474 6 6.5c0 4.275-2.579 7.5-6 7.5"/>
        <path fill="#4D5152" d="M38 22H22c-1.626 0-3-1.832-3-4v-2.58l7.504-4.288.992 1.736L21 16.58V18c0 1.224.703 2 1 2h16c.297 0 1-.776 1-2v-1.42l-6.496-3.712.992-1.736L41 15.42V18c0 2.168-1.374 4-3 4"/>
        <path fill="#FFF" d="M14 46l7 4v2c0 1.657-1 3-2 3H3c-1 0-2-1.343-2-3v-2l7-4h6z"/>
        <path fill="#FFB957" d="M16 40.5c0 3.5-1.963 6.5-5 6.5s-5-3-5-6.5S7 35 11 35s5 2 5 5.5"/>
        <path fill="#4D5152" d="M11 36c-3.028 0-4 1.094-4 4.5 0 2.666 1.402 5.5 4 5.5s4-2.834 4-5.5c0-3.406-.972-4.5-4-4.5m0 12c-3.421 0-6-3.225-6-7.5 0-3.026.682-6.5 6-6.5s6 3.474 6 6.5c0 4.275-2.579 7.5-6 7.5"/>
        <path fill="#4D5152" d="M19 56H3c-1.626 0-3-1.832-3-4v-2.58l7.504-4.288.992 1.736L2 50.58V52c0 1.224.703 2 1 2h16c.297 0 1-.776 1-2v-1.42l-6.496-3.712.992-1.736L22 49.42V52c0 2.168-1.374 4-3 4"/>
        <path fill="#FFF" d="M52 46l7 4v2c0 1.657-1 3-2 3H41c-1 0-2-1.343-2-3v-2l7-4h6z"/>
        <path fill="#FFB957" d="M54 40.5c0 3.5-1.963 6.5-5 6.5s-5-3-5-6.5 1-5.5 5-5.5 5 2 5 5.5"/>
        <path fill="#4D5152" d="M49 36c-3.028 0-4 1.094-4 4.5 0 2.666 1.402 5.5 4 5.5s4-2.834 4-5.5c0-3.406-.972-4.5-4-4.5m0 12c-3.421 0-6-3.225-6-7.5 0-3.026.682-6.5 6-6.5s6 3.474 6 6.5c0 4.275-2.579 7.5-6 7.5"/>
        <path fill="#4D5152" d="M57 56H41c-1.626 0-3-1.832-3-4v-2.58l7.504-4.288.992 1.736L40 50.58V52c0 1.224.703 2 1 2h16c.297 0 1-.776 1-2v-1.42l-6.496-3.712.992-1.736L60 49.42V52c0 2.168-1.374 4-3 4"/>
        <mask id="b" fill="#fff">
            <use xlink:href="#a"/>
        </mask>
        <path fill="#4D5152" d="M29 34h2v-8h-2z" mask="url(#b)"/>
        <path fill="#4D5152" d="M22.6 40.8l-1.2-1.6 8-6 1.2 1.6z" mask="url(#b)"/>
        <path fill="#4D5152" d="M37.4 40.8l-8-6 1.2-1.6 8 6z" mask="url(#b)"/>
    </g>
</svg>
