<svg xmlns="http://www.w3.org/2000/svg" xmlns:xlink="http://www.w3.org/1999/xlink" width="64" height="56" viewBox="0 0 64 56">
    <defs>
        <path id="a" d="M0 56h64V0H0z"/>
    </defs>
    <g fill="none" fill-rule="evenodd">
        <path fill="#FFF" d="M43 22c0 11.598-9.402 21-21 21S1 33.598 1 22 10.402 1 22 1s21 9.402 21 21z"/>
        <path fill="#F28C13" d="M6 22H1a20.942 20.942 0 0 0 6.15 14.85l3.536-3.537A15.95 15.95 0 0 1 6 22"/>
        <path fill="#67DDE0" d="M22 6V1C10.402 1 1 10.402 1 22h5c0-8.837 7.164-16 16-16"/>
        <path fill="#FFB957" d="M22 1v5c8.836 0 16 7.163 16 16a15.95 15.95 0 0 1-4.686 11.313l3.536 3.537A20.942 20.942 0 0 0 43 22c0-11.598-9.402-21-21-21"/>
        <path fill="#FFB957" d="M22 38a15.95 15.95 0 0 1-11.314-4.687L7.15 36.85A20.942 20.942 0 0 0 22 43a20.942 20.942 0 0 0 14.85-6.15l-3.536-3.537A15.95 15.95 0 0 1 22 38M6 22a15.95 15.95 0 0 0 4.686 11.313L22 22H6z"/>
        <path fill="#ACF0F2" d="M6 22h16V6C13.164 6 6 13.163 6 22"/>
        <path fill="#FFF" d="M33.315 33.313A15.95 15.95 0 0 0 38 22c0-8.836-7.165-16-16-16v16l11.314 11.313zM10.685 33.313A15.95 15.95 0 0 0 22 38.002c4.418 0 8.418-1.791 11.315-4.688L22 22 10.685 33.313z"/>
        <path fill="#4D5152" d="M22 44C9.869 44 0 34.131 0 22h2c0 11.028 8.972 20 20 20s20-8.972 20-20S33.028 2 22 2V0c12.131 0 22 9.869 22 22s-9.869 22-22 22"/>
        <path fill="#67DDE0" d="M49 40c7 4 14 3 14 13v2H19v-2c0-10 7-9 14-13h16z"/>
        <path fill="#FFF" d="M45 44l-4-2-4 2-4-4 2-3h1v-4l5 1 5-1v4h1l2 3z"/>
        <path fill="#4D5152" d="M64 56H18v-3c0-8.01 4.446-9.7 9.152-11.488 1.743-.662 3.544-1.347 5.352-2.38l.992 1.736c-1.943 1.111-3.904 1.856-5.633 2.513C23.128 45.181 20 46.369 20 53v1h42v-1c0-6.631-3.128-7.819-7.863-9.619-1.729-.657-3.69-1.402-5.633-2.513l.992-1.736c1.808 1.033 3.609 1.718 5.352 2.38C59.554 43.3 64 44.99 64 53v3z"/>
        <path fill="#4D5152" d="M41 40.882l3.803 1.9 2.91-2.91-1.187-1.78-5.526.922-5.526-.921-1.187 1.78 2.91 2.91L41 40.882zm4.197 4.335L41 43.117l-4.197 2.1-5.09-5.09 2.813-4.22L41 36.986l6.474-1.08 2.813 4.22-5.09 5.09z"/>
        <mask id="b" fill="#fff">
            <use xlink:href="#a"/>
        </mask>
        <path fill="#4D5152" d="M45 37h2v-4h-2zM35 37h2v-4h-2zM40 52h2v-2h-2zM40 48h2v-2h-2z" mask="url(#b)"/>
        <path fill="#FFF" d="M50 20v4c-1 7-4 9-4 9-2 1-5 1-5 1s-3 0-5-1c0 0-3-2-4-9v-4l4-2 10 4 4-2z" mask="url(#b)"/>
        <path fill="#FFB957" d="M32 20c0-6.075 2.925-9 9-9s9 2.925 9 9l-4 2-5-2-5-2-4 2z" mask="url(#b)"/>
        <path fill="#4D5152" d="M41 35c-.132 0-3.261-.013-5.447-1.105l-.108-.063c-.137-.092-3.384-2.333-4.435-9.69L31 24v-4h2v3.929c.861 5.917 3.201 7.96 3.519 8.212 1.762.844 4.455.859 4.482.859.025 0 2.717-.015 4.478-.858.313-.25 2.661-2.305 3.521-8.213V20h2l-.01 4.142c-1.051 7.357-4.298 9.598-4.435 9.69l-.108.063C44.261 34.987 41.132 35 41 35M51 20h-2c0-5.532-2.467-8-8-8-5.533 0-8 2.468-8 8h-2c0-6.636 3.364-10 10-10s10 3.364 10 10" mask="url(#b)"/>
        <path fill="#4D5152" d="M46.045 23.096l-10-4-3.598 1.799-.895-1.79 4.402-2.2 10 4 3.598-1.8.895 1.79z" mask="url(#b)"/>
    </g>
</svg>
