<svg xmlns="http://www.w3.org/2000/svg" width="50" height="50" viewBox="0 0 50 50">
    <g fill="#D92E27" fill-rule="evenodd">
        <path d="M24.739 2C12.2 2 1.999 12.201 1.999 24.739s10.202 22.74 22.74 22.74c12.539 0 22.739-10.202 22.739-22.74C47.478 12.201 37.278 2 24.738 2m0 47.479C11.099 49.479 0 38.381 0 24.739 0 11.098 11.098 0 24.739 0c13.64 0 24.739 11.098 24.739 24.739 0 13.642-11.098 24.74-24.74 24.74"/>
        <path d="M31.9 28.706l3.454-10.946 2.809 10.946H31.9zm-19.207 0l3.454-10.946 2.81 10.946h-6.264zm27.728.751l-4-15.583a1.001 1.001 0 0 0-.941-.751c-.015 0-.028.005-.042.005-.01 0-.016-.005-.025-.005h-9.25v-3a1 1 0 0 0-2 0v3h-7.917c-.013 0-.023.007-.036.007a.909.909 0 0 0-.351.071l-.005.003a.91.91 0 0 0-.291.196l-.042.043a.993.993 0 0 0-.154.228c-.018.034-.036.066-.05.102-.007.017-.02.031-.024.049l-4.917 15.583a.997.997 0 0 0 .953 1.301h8.917a1 1 0 0 0 .969-1.249l-3.68-14.334h6.628v21.833h-5.25a1 1 0 1 0 0 2h12.5a1 1 0 1 0 0-2h-5.25V15.123h7.925l-4.506 14.282a1 1 0 0 0 .954 1.301h8.916a1 1 0 0 0 .969-1.249z"/>
    </g>
</svg>
